<svg version="1.1" xmlns="http://www.w3.org/2000/svg" xmlns:xlink="http://www.w3.org/1999/xlink" x="0px" y="0px" width="512px" height="512px"
	 viewBox="0 0 512 512" xml:space="preserve">
<switch>
	<g>
		<path fill="#1A171B" d="M256,0C114.613,0,0,114.619,0,256c0,141.383,114.613,256,256,256c141.385,0,256-114.617,256-256
			C512,114.619,397.385,0,256,0z M256,496C123.451,496,16,388.546,16,256C16,123.455,123.451,16,256,16s240,107.455,240,240
			C496,388.546,388.549,496,256,496z"/>
		<g>
			<path fill="#1A171B" d="M376.203,248.743c-4.418,0-8,3.583-8,8c0,62.376-50.746,113.121-113.121,113.121
				c-32.027,0-62.668-13.803-83.998-37.378h60.018c4.42,0,8-3.582,8-8c0-4.416-3.58-8-8-8h-76.4c-4.418,0-8,3.584-8,8v76.402
				c0,4.418,3.582,8,8,8s8-3.582,8-8v-53.973c24.131,24.638,57.533,38.948,92.381,38.948c71.197,0,129.121-57.923,129.121-129.121
				C384.203,252.326,380.621,248.743,376.203,248.743z"/>
			<path fill="#1A171B" d="M255.34,143.518c32.027,0,62.668,13.802,84,37.377h-60.023c-4.418,0-8,3.583-8,8c0,4.419,3.582,8,8,8
				h76.404c4.416,0,8-3.581,8-8v-76.403c0-4.417-3.584-8-8-8c-4.418,0-8,3.583-8,8v53.974
				c-24.131-24.638-57.535-38.947-92.381-38.947c-71.199,0-129.121,57.924-129.121,129.12c0,4.417,3.582,8,8,8s8-3.583,8-8
				C142.219,194.263,192.965,143.518,255.34,143.518z"/>
		</g>
	</g>
</switch>
</svg>
